<mxfile host="Electron" modified="2023-05-11T09:27:14.522Z" agent="Mozilla/5.0 (Windows NT 10.0; Win64; x64) AppleWebKit/537.36 (KHTML, like Gecko) draw.io/21.2.8 Chrome/112.0.5615.165 Electron/24.2.0 Safari/537.36" etag="iaXhK5CZErKM0ri82VOX" version="21.2.8" type="device">
  <diagram name="Страница 1" id="j_kF0CvcxKTmVUtMC3FJ">
    <mxGraphModel dx="1098" dy="648" grid="1" gridSize="10" guides="1" tooltips="1" connect="1" arrows="1" fold="1" page="1" pageScale="1" pageWidth="827" pageHeight="1169" math="0" shadow="0">
      <root>
        <mxCell id="0" />
        <mxCell id="1" parent="0" />
        <mxCell id="PX9Scq-UWOM0sy9KNY7R-1" value="SPI1" style="shape=mxgraph.cisco.switches.virtual_layer_switch;sketch=0;html=1;pointerEvents=1;dashed=0;fillColor=#036897;strokeColor=#ffffff;strokeWidth=2;verticalLabelPosition=bottom;verticalAlign=top;align=center;outlineConnect=0;fontSize=9;fontColor=default;" vertex="1" parent="1">
          <mxGeometry x="180" y="100" width="100" height="60" as="geometry" />
        </mxCell>
        <mxCell id="PX9Scq-UWOM0sy9KNY7R-2" value="SPI2" style="shape=mxgraph.cisco.switches.virtual_layer_switch;sketch=0;html=1;pointerEvents=1;dashed=0;fillColor=#036897;strokeColor=#ffffff;strokeWidth=2;verticalLabelPosition=bottom;verticalAlign=top;align=center;outlineConnect=0;fontSize=9;fontColor=default;" vertex="1" parent="1">
          <mxGeometry x="470" y="100" width="100" height="60" as="geometry" />
        </mxCell>
        <mxCell id="PX9Scq-UWOM0sy9KNY7R-3" value="" style="group;movable=1;resizable=1;rotatable=1;deletable=1;editable=1;locked=0;connectable=1;" vertex="1" connectable="0" parent="1">
          <mxGeometry x="240" y="320" width="100" height="40" as="geometry" />
        </mxCell>
        <mxCell id="PX9Scq-UWOM0sy9KNY7R-4" value="&lt;br&gt;&lt;font style=&quot;font-size: 8px;&quot;&gt;&lt;table cellpadding=&quot;0&quot; cellspacing=&quot;0&quot; style=&quot;;width:0&quot; class=&quot;x-grid-item x-grid-item-over x-grid-item-selected&quot; data-recordindex=&quot;2&quot; data-recordid=&quot;1028&quot; data-boundview=&quot;tableview-1403&quot; role=&quot;presentation&quot; id=&quot;tableview-1403-record-1028&quot;&gt;&lt;tbody&gt;&lt;tr aria-selected=&quot;true&quot; role=&quot;row&quot; class=&quot;x-grid-row&quot;&gt;&lt;td data-columnid=&quot;gridcolumn-1396&quot; tabindex=&quot;-1&quot; style=&quot;width:100px;&quot; role=&quot;gridcell&quot; class=&quot;x-grid-cell x-grid-td x-grid-cell-gridcolumn-1396&quot;&gt;&lt;/td&gt;&lt;td data-columnid=&quot;gridcolumn-1397&quot; tabindex=&quot;-1&quot; style=&quot;width:100px;&quot; role=&quot;gridcell&quot; class=&quot;x-grid-cell x-grid-td x-grid-cell-gridcolumn-1397 x-grid-item-focused&quot;&gt;&lt;br&gt;&lt;/td&gt;&lt;/tr&gt;&lt;/tbody&gt;&lt;/table&gt;&lt;/font&gt;" style="shape=mxgraph.cisco.switches.workgroup_switch;html=1;pointerEvents=1;dashed=0;fillColor=#036897;strokeColor=#ffffff;strokeWidth=2;verticalLabelPosition=bottom;verticalAlign=top;align=center;outlineConnect=0;fontSize=12;shadow=0;gradientColor=none;spacingTop=-5;movable=1;resizable=1;rotatable=1;deletable=1;editable=1;locked=0;connectable=1;" vertex="1" parent="PX9Scq-UWOM0sy9KNY7R-3">
          <mxGeometry width="100" height="40" as="geometry" />
        </mxCell>
        <mxCell id="PX9Scq-UWOM0sy9KNY7R-5" value="LIF2" style="text;strokeColor=none;align=center;fillColor=none;html=1;verticalAlign=middle;whiteSpace=wrap;rounded=0;fontSize=10;movable=1;resizable=1;rotatable=1;deletable=1;editable=1;locked=0;connectable=1;" vertex="1" parent="PX9Scq-UWOM0sy9KNY7R-3">
          <mxGeometry y="20" width="70" height="20" as="geometry" />
        </mxCell>
        <mxCell id="PX9Scq-UWOM0sy9KNY7R-6" value="" style="group" vertex="1" connectable="0" parent="1">
          <mxGeometry x="40" y="320" width="100" height="40" as="geometry" />
        </mxCell>
        <mxCell id="PX9Scq-UWOM0sy9KNY7R-7" value="&lt;br&gt;&lt;font style=&quot;font-size: 8px;&quot;&gt;&lt;table cellpadding=&quot;0&quot; cellspacing=&quot;0&quot; style=&quot;;width:0&quot; class=&quot;x-grid-item x-grid-item-over x-grid-item-selected&quot; data-recordindex=&quot;2&quot; data-recordid=&quot;1028&quot; data-boundview=&quot;tableview-1403&quot; role=&quot;presentation&quot; id=&quot;tableview-1403-record-1028&quot;&gt;&lt;tbody&gt;&lt;tr aria-selected=&quot;true&quot; role=&quot;row&quot; class=&quot;x-grid-row&quot;&gt;&lt;td data-columnid=&quot;gridcolumn-1396&quot; tabindex=&quot;-1&quot; style=&quot;width:100px;&quot; role=&quot;gridcell&quot; class=&quot;x-grid-cell x-grid-td x-grid-cell-gridcolumn-1396&quot;&gt;&lt;/td&gt;&lt;td data-columnid=&quot;gridcolumn-1397&quot; tabindex=&quot;-1&quot; style=&quot;width:100px;&quot; role=&quot;gridcell&quot; class=&quot;x-grid-cell x-grid-td x-grid-cell-gridcolumn-1397 x-grid-item-focused&quot;&gt;&lt;br&gt;&lt;/td&gt;&lt;/tr&gt;&lt;/tbody&gt;&lt;/table&gt;&lt;/font&gt;" style="shape=mxgraph.cisco.switches.workgroup_switch;html=1;pointerEvents=1;dashed=0;fillColor=#036897;strokeColor=#ffffff;strokeWidth=2;verticalLabelPosition=bottom;verticalAlign=top;align=center;outlineConnect=0;fontSize=12;shadow=0;gradientColor=none;spacingTop=-5;" vertex="1" parent="PX9Scq-UWOM0sy9KNY7R-6">
          <mxGeometry width="100" height="40" as="geometry" />
        </mxCell>
        <mxCell id="PX9Scq-UWOM0sy9KNY7R-8" value="LIF1" style="text;strokeColor=none;align=center;fillColor=none;html=1;verticalAlign=middle;whiteSpace=wrap;rounded=0;fontSize=10;" vertex="1" parent="PX9Scq-UWOM0sy9KNY7R-6">
          <mxGeometry y="20" width="70" height="20" as="geometry" />
        </mxCell>
        <mxCell id="PX9Scq-UWOM0sy9KNY7R-21" value="" style="group;movable=1;resizable=1;rotatable=1;deletable=1;editable=1;locked=0;connectable=1;" vertex="1" connectable="0" parent="1">
          <mxGeometry x="414" y="320" width="100" height="40" as="geometry" />
        </mxCell>
        <mxCell id="PX9Scq-UWOM0sy9KNY7R-22" value="&lt;br&gt;&lt;font style=&quot;font-size: 8px;&quot;&gt;&lt;table cellpadding=&quot;0&quot; cellspacing=&quot;0&quot; style=&quot;;width:0&quot; class=&quot;x-grid-item x-grid-item-over x-grid-item-selected&quot; data-recordindex=&quot;2&quot; data-recordid=&quot;1028&quot; data-boundview=&quot;tableview-1403&quot; role=&quot;presentation&quot; id=&quot;tableview-1403-record-1028&quot;&gt;&lt;tbody&gt;&lt;tr aria-selected=&quot;true&quot; role=&quot;row&quot; class=&quot;x-grid-row&quot;&gt;&lt;td data-columnid=&quot;gridcolumn-1396&quot; tabindex=&quot;-1&quot; style=&quot;width:100px;&quot; role=&quot;gridcell&quot; class=&quot;x-grid-cell x-grid-td x-grid-cell-gridcolumn-1396&quot;&gt;&lt;/td&gt;&lt;td data-columnid=&quot;gridcolumn-1397&quot; tabindex=&quot;-1&quot; style=&quot;width:100px;&quot; role=&quot;gridcell&quot; class=&quot;x-grid-cell x-grid-td x-grid-cell-gridcolumn-1397 x-grid-item-focused&quot;&gt;&lt;br&gt;&lt;/td&gt;&lt;/tr&gt;&lt;/tbody&gt;&lt;/table&gt;&lt;/font&gt;" style="shape=mxgraph.cisco.switches.workgroup_switch;html=1;pointerEvents=1;dashed=0;fillColor=#036897;strokeColor=#ffffff;strokeWidth=2;verticalLabelPosition=bottom;verticalAlign=top;align=center;outlineConnect=0;fontSize=12;shadow=0;gradientColor=none;spacingTop=-5;movable=1;resizable=1;rotatable=1;deletable=1;editable=1;locked=0;connectable=1;" vertex="1" parent="PX9Scq-UWOM0sy9KNY7R-21">
          <mxGeometry width="100" height="40" as="geometry" />
        </mxCell>
        <mxCell id="PX9Scq-UWOM0sy9KNY7R-23" value="LIF3" style="text;strokeColor=none;align=center;fillColor=none;html=1;verticalAlign=middle;whiteSpace=wrap;rounded=0;fontSize=10;movable=1;resizable=1;rotatable=1;deletable=1;editable=1;locked=0;connectable=1;" vertex="1" parent="PX9Scq-UWOM0sy9KNY7R-21">
          <mxGeometry x="2" y="20" width="70" height="20" as="geometry" />
        </mxCell>
        <mxCell id="PX9Scq-UWOM0sy9KNY7R-25" value="" style="group;movable=1;resizable=1;rotatable=1;deletable=1;editable=1;locked=0;connectable=1;" vertex="1" connectable="0" parent="1">
          <mxGeometry x="560" y="320" width="100" height="40" as="geometry" />
        </mxCell>
        <mxCell id="PX9Scq-UWOM0sy9KNY7R-26" value="&lt;br&gt;&lt;br&gt;&lt;font style=&quot;font-size: 8px;&quot;&gt;&lt;table cellpadding=&quot;0&quot; cellspacing=&quot;0&quot; style=&quot;;width:0&quot; class=&quot;x-grid-item x-grid-item-over x-grid-item-selected&quot; data-recordindex=&quot;2&quot; data-recordid=&quot;1028&quot; data-boundview=&quot;tableview-1403&quot; role=&quot;presentation&quot; id=&quot;tableview-1403-record-1028&quot;&gt;&lt;tbody&gt;&lt;tr aria-selected=&quot;true&quot; role=&quot;row&quot; class=&quot;x-grid-row&quot;&gt;&lt;td data-columnid=&quot;gridcolumn-1396&quot; tabindex=&quot;-1&quot; style=&quot;width:100px;&quot; role=&quot;gridcell&quot; class=&quot;x-grid-cell x-grid-td x-grid-cell-gridcolumn-1396&quot;&gt;&lt;/td&gt;&lt;td data-columnid=&quot;gridcolumn-1397&quot; tabindex=&quot;-1&quot; style=&quot;width:100px;&quot; role=&quot;gridcell&quot; class=&quot;x-grid-cell x-grid-td x-grid-cell-gridcolumn-1397 x-grid-item-focused&quot;&gt;&lt;br&gt;&lt;/td&gt;&lt;/tr&gt;&lt;/tbody&gt;&lt;/table&gt;&lt;/font&gt;" style="shape=mxgraph.cisco.switches.workgroup_switch;html=1;pointerEvents=1;dashed=0;fillColor=#036897;strokeColor=#ffffff;strokeWidth=2;verticalLabelPosition=bottom;verticalAlign=top;align=center;outlineConnect=0;fontSize=12;shadow=0;gradientColor=none;spacingTop=-5;movable=1;resizable=1;rotatable=1;deletable=1;editable=1;locked=0;connectable=1;" vertex="1" parent="PX9Scq-UWOM0sy9KNY7R-25">
          <mxGeometry width="100" height="40" as="geometry" />
        </mxCell>
        <mxCell id="PX9Scq-UWOM0sy9KNY7R-27" value="LIF4" style="text;strokeColor=none;align=center;fillColor=none;html=1;verticalAlign=middle;whiteSpace=wrap;rounded=0;fontSize=10;movable=1;resizable=1;rotatable=1;deletable=1;editable=1;locked=0;connectable=1;" vertex="1" parent="PX9Scq-UWOM0sy9KNY7R-25">
          <mxGeometry y="20" width="70" height="20" as="geometry" />
        </mxCell>
        <mxCell id="PX9Scq-UWOM0sy9KNY7R-32" value="" style="endArrow=none;html=1;rounded=0;exitX=0.5;exitY=0;exitDx=0;exitDy=0;exitPerimeter=0;entryX=0.5;entryY=1;entryDx=0;entryDy=0;entryPerimeter=0;" edge="1" parent="1" source="PX9Scq-UWOM0sy9KNY7R-7" target="PX9Scq-UWOM0sy9KNY7R-1">
          <mxGeometry width="50" height="50" relative="1" as="geometry">
            <mxPoint x="390" y="360" as="sourcePoint" />
            <mxPoint x="440" y="310" as="targetPoint" />
          </mxGeometry>
        </mxCell>
        <mxCell id="PX9Scq-UWOM0sy9KNY7R-34" value="" style="endArrow=none;html=1;rounded=0;exitX=0.5;exitY=0;exitDx=0;exitDy=0;exitPerimeter=0;entryX=0.5;entryY=1;entryDx=0;entryDy=0;entryPerimeter=0;" edge="1" parent="1" source="PX9Scq-UWOM0sy9KNY7R-7" target="PX9Scq-UWOM0sy9KNY7R-2">
          <mxGeometry width="50" height="50" relative="1" as="geometry">
            <mxPoint x="390" y="360" as="sourcePoint" />
            <mxPoint x="440" y="310" as="targetPoint" />
          </mxGeometry>
        </mxCell>
        <mxCell id="PX9Scq-UWOM0sy9KNY7R-35" value="" style="endArrow=none;html=1;rounded=0;exitX=0.5;exitY=0;exitDx=0;exitDy=0;exitPerimeter=0;entryX=0.5;entryY=1;entryDx=0;entryDy=0;entryPerimeter=0;" edge="1" parent="1" source="PX9Scq-UWOM0sy9KNY7R-4" target="PX9Scq-UWOM0sy9KNY7R-1">
          <mxGeometry width="50" height="50" relative="1" as="geometry">
            <mxPoint x="390" y="360" as="sourcePoint" />
            <mxPoint x="440" y="310" as="targetPoint" />
          </mxGeometry>
        </mxCell>
        <mxCell id="PX9Scq-UWOM0sy9KNY7R-36" value="" style="endArrow=none;html=1;rounded=0;exitX=0.5;exitY=0;exitDx=0;exitDy=0;exitPerimeter=0;entryX=0.5;entryY=1;entryDx=0;entryDy=0;entryPerimeter=0;" edge="1" parent="1" source="PX9Scq-UWOM0sy9KNY7R-4" target="PX9Scq-UWOM0sy9KNY7R-2">
          <mxGeometry width="50" height="50" relative="1" as="geometry">
            <mxPoint x="390" y="360" as="sourcePoint" />
            <mxPoint x="440" y="310" as="targetPoint" />
          </mxGeometry>
        </mxCell>
        <mxCell id="PX9Scq-UWOM0sy9KNY7R-37" value="" style="endArrow=none;html=1;rounded=0;exitX=0.5;exitY=0;exitDx=0;exitDy=0;exitPerimeter=0;entryX=0.5;entryY=1;entryDx=0;entryDy=0;entryPerimeter=0;" edge="1" parent="1" source="PX9Scq-UWOM0sy9KNY7R-22" target="PX9Scq-UWOM0sy9KNY7R-2">
          <mxGeometry width="50" height="50" relative="1" as="geometry">
            <mxPoint x="390" y="360" as="sourcePoint" />
            <mxPoint x="440" y="310" as="targetPoint" />
          </mxGeometry>
        </mxCell>
        <mxCell id="PX9Scq-UWOM0sy9KNY7R-38" value="" style="endArrow=none;html=1;rounded=0;exitX=0.5;exitY=0;exitDx=0;exitDy=0;exitPerimeter=0;entryX=0.5;entryY=1;entryDx=0;entryDy=0;entryPerimeter=0;" edge="1" parent="1" source="PX9Scq-UWOM0sy9KNY7R-22" target="PX9Scq-UWOM0sy9KNY7R-1">
          <mxGeometry width="50" height="50" relative="1" as="geometry">
            <mxPoint x="390" y="360" as="sourcePoint" />
            <mxPoint x="440" y="310" as="targetPoint" />
          </mxGeometry>
        </mxCell>
        <mxCell id="PX9Scq-UWOM0sy9KNY7R-39" value="" style="endArrow=none;html=1;rounded=0;exitX=0.5;exitY=0;exitDx=0;exitDy=0;exitPerimeter=0;entryX=0.5;entryY=1;entryDx=0;entryDy=0;entryPerimeter=0;" edge="1" parent="1" source="PX9Scq-UWOM0sy9KNY7R-26" target="PX9Scq-UWOM0sy9KNY7R-2">
          <mxGeometry width="50" height="50" relative="1" as="geometry">
            <mxPoint x="390" y="360" as="sourcePoint" />
            <mxPoint x="440" y="310" as="targetPoint" />
          </mxGeometry>
        </mxCell>
        <mxCell id="PX9Scq-UWOM0sy9KNY7R-40" value="" style="endArrow=none;html=1;rounded=0;entryX=0.5;entryY=0;entryDx=0;entryDy=0;entryPerimeter=0;exitX=0.5;exitY=1;exitDx=0;exitDy=0;exitPerimeter=0;" edge="1" parent="1" source="PX9Scq-UWOM0sy9KNY7R-1" target="PX9Scq-UWOM0sy9KNY7R-26">
          <mxGeometry width="50" height="50" relative="1" as="geometry">
            <mxPoint x="390" y="360" as="sourcePoint" />
            <mxPoint x="440" y="310" as="targetPoint" />
          </mxGeometry>
        </mxCell>
        <mxCell id="PX9Scq-UWOM0sy9KNY7R-41" value="server1" style="verticalLabelPosition=top;sketch=0;aspect=fixed;html=1;verticalAlign=bottom;strokeColor=none;align=center;outlineConnect=0;shape=mxgraph.citrix.1u_2u_server;labelBackgroundColor=#F8CECC;labelPosition=center;fontStyle=0;fontFamily=Tahoma;" vertex="1" parent="1">
          <mxGeometry x="29.999999999999545" y="449.9999999999998" width="102.3" height="40" as="geometry" />
        </mxCell>
        <mxCell id="PX9Scq-UWOM0sy9KNY7R-42" value="" style="endArrow=none;html=1;rounded=0;entryX=0.5;entryY=1;entryDx=0;entryDy=0;" edge="1" parent="1" source="PX9Scq-UWOM0sy9KNY7R-41" target="PX9Scq-UWOM0sy9KNY7R-8">
          <mxGeometry width="50" height="50" relative="1" as="geometry">
            <mxPoint x="390" y="10" as="sourcePoint" />
            <mxPoint x="440" y="-40" as="targetPoint" />
          </mxGeometry>
        </mxCell>
        <mxCell id="PX9Scq-UWOM0sy9KNY7R-43" value="server2" style="verticalLabelPosition=top;sketch=0;aspect=fixed;html=1;verticalAlign=bottom;strokeColor=none;align=center;outlineConnect=0;shape=mxgraph.citrix.1u_2u_server;labelBackgroundColor=#F8CECC;labelPosition=center;fontStyle=0;fontFamily=Tahoma;" vertex="1" parent="1">
          <mxGeometry x="229.99999999999955" y="439.9999999999998" width="102.3" height="40" as="geometry" />
        </mxCell>
        <mxCell id="PX9Scq-UWOM0sy9KNY7R-44" value="server3" style="verticalLabelPosition=top;sketch=0;aspect=fixed;html=1;verticalAlign=bottom;strokeColor=none;align=center;outlineConnect=0;shape=mxgraph.citrix.1u_2u_server;labelBackgroundColor=#F8CECC;labelPosition=center;fontStyle=0;fontFamily=Tahoma;" vertex="1" parent="1">
          <mxGeometry x="419.99999999999955" y="439.9999999999998" width="102.3" height="40" as="geometry" />
        </mxCell>
        <mxCell id="PX9Scq-UWOM0sy9KNY7R-45" value="server4" style="verticalLabelPosition=top;sketch=0;aspect=fixed;html=1;verticalAlign=bottom;strokeColor=none;align=center;outlineConnect=0;shape=mxgraph.citrix.1u_2u_server;labelBackgroundColor=#F8CECC;labelPosition=center;fontStyle=0;fontFamily=Tahoma;" vertex="1" parent="1">
          <mxGeometry x="569.9999999999995" y="439.9999999999998" width="102.3" height="40" as="geometry" />
        </mxCell>
        <mxCell id="PX9Scq-UWOM0sy9KNY7R-46" value="" style="endArrow=none;html=1;rounded=0;entryX=0.5;entryY=1;entryDx=0;entryDy=0;" edge="1" parent="1" source="PX9Scq-UWOM0sy9KNY7R-43" target="PX9Scq-UWOM0sy9KNY7R-5">
          <mxGeometry width="50" height="50" relative="1" as="geometry">
            <mxPoint x="390" y="310" as="sourcePoint" />
            <mxPoint x="440" y="260" as="targetPoint" />
          </mxGeometry>
        </mxCell>
        <mxCell id="PX9Scq-UWOM0sy9KNY7R-47" value="" style="endArrow=none;html=1;rounded=0;entryX=0.5;entryY=1;entryDx=0;entryDy=0;" edge="1" parent="1" source="PX9Scq-UWOM0sy9KNY7R-44" target="PX9Scq-UWOM0sy9KNY7R-27">
          <mxGeometry width="50" height="50" relative="1" as="geometry">
            <mxPoint x="390" y="310" as="sourcePoint" />
            <mxPoint x="440" y="260" as="targetPoint" />
          </mxGeometry>
        </mxCell>
        <mxCell id="PX9Scq-UWOM0sy9KNY7R-48" value="" style="endArrow=none;html=1;rounded=0;entryX=0.75;entryY=1;entryDx=0;entryDy=0;" edge="1" parent="1" source="PX9Scq-UWOM0sy9KNY7R-45" target="PX9Scq-UWOM0sy9KNY7R-27">
          <mxGeometry width="50" height="50" relative="1" as="geometry">
            <mxPoint x="390" y="310" as="sourcePoint" />
            <mxPoint x="440" y="260" as="targetPoint" />
          </mxGeometry>
        </mxCell>
      </root>
    </mxGraphModel>
  </diagram>
</mxfile>
